<svg width="68" height="68" viewBox="0 0 68 68" fill="none" xmlns="http://www.w3.org/2000/svg">
<g clip-path="url(#clip0_2_8)">
<path d="M58.0833 17C50.6883 18.9833 42.0183 19.8333 34 19.8333C25.9817 19.8333 17.3117 18.9833 9.91667 17L8.5 22.6667C13.77 24.0833 19.8333 25.0183 25.5 25.5V62.3333H31.1667V45.3333H36.8333V62.3333H42.5V25.5C48.1667 25.0183 54.23 24.0833 59.5 22.6667L58.0833 17ZM34 17C37.1167 17 39.6667 14.45 39.6667 11.3333C39.6667 8.21666 37.1167 5.66666 34 5.66666C30.8833 5.66666 28.3333 8.21666 28.3333 11.3333C28.3333 14.45 30.8833 17 34 17Z" fill="black"/>
</g>
<defs>
<clipPath id="clip0_2_8">
<rect width="68" height="68" fill="white"/>
</clipPath>
</defs>
</svg>
