<svg width="76" height="75" viewBox="0 0 76 75" fill="none" xmlns="http://www.w3.org/2000/svg">
<g clip-path="url(#clip0_13_28)">
<path d="M74.5472 35.2656L63.5585 24.2922C62.2882 23.0219 60.3752 23.0219 59.1049 24.2922C57.8346 25.5625 57.8346 27.4755 59.1049 28.7458L67.8591 37.5L59.1049 46.2542C57.7887 47.6469 57.8805 49.4682 59.1049 50.7079C60.3752 51.9781 62.2882 51.9781 63.5585 50.7079L74.5472 39.7192C75.8175 38.4489 75.8175 36.5511 74.5472 35.2656Z" fill="#BA5865"/>
<path d="M8.1408 37.5L16.895 28.7458C18.2112 27.3531 18.1194 25.5319 16.895 24.2922C15.6247 23.0219 13.7117 23.0219 12.4414 24.2922L1.45271 35.2809C0.18243 36.5511 0.18243 38.4642 1.45271 39.7345L12.4414 50.7079C13.7117 51.9781 15.6247 51.9781 16.895 50.7079C18.1653 49.4376 18.1653 47.5245 16.895 46.2542L8.1408 37.5Z" fill="#BA5865"/>
<path d="M29.2457 16.4103L37.9999 7.6408L46.7541 16.395C48.1468 17.7112 49.9681 17.6194 51.2077 16.395C52.478 15.1247 52.478 13.2117 51.2077 11.9414L40.2191 0.952709C38.9488 -0.31757 37.0357 -0.31757 35.7654 0.952709L24.7921 11.9414C23.5218 13.2117 23.5218 15.1247 24.7921 16.395C26.0623 17.6653 27.9754 17.6806 29.2457 16.4103Z" fill="#BA5865"/>
<path d="M46.7541 58.5897L37.9999 67.3592L29.2457 58.605C27.853 57.2888 26.0317 57.3807 24.7921 58.605C23.5218 59.8753 23.5218 61.7884 24.7921 63.0587L35.7807 74.0473C37.051 75.3176 38.9641 75.3176 40.2344 74.0473L51.223 63.0587C52.4933 61.7884 52.4933 59.8753 51.223 58.605C49.9375 57.3194 48.0244 57.3194 46.7541 58.5897Z" fill="#BA5865"/>
<path d="M57.8959 35.3574L40.2345 17.6806C38.9642 16.4103 37.0511 16.4103 35.7808 17.6806L18.1041 35.3574C16.8338 36.6277 16.8338 38.5407 18.1041 39.811L35.7808 57.3194C37.296 58.605 38.6887 58.5591 40.2345 57.4725L57.8959 39.811C59.1815 38.5407 59.1815 36.6277 57.8959 35.3574ZM38 50.7997L24.7922 37.5918L38 24.384L51.2078 37.5918L38 50.7997Z" fill="#BA5865"/>
</g>
<defs>
<clipPath id="clip0_13_28">
<rect width="75" height="75" fill="white" transform="translate(0.5)"/>
</clipPath>
</defs>
</svg>
