<svg width="68" height="81" viewBox="0 0 68 81" fill="none" xmlns="http://www.w3.org/2000/svg">
<path d="M2.73242 36.8121V55.4428C2.73242 62.2652 2.73242 62.2652 9.61227 66.6136L28.5318 76.8473C31.3718 78.3843 36.0117 78.3843 38.8516 76.8473L57.7712 66.6136C64.651 62.2652 64.651 62.2652 64.651 55.4428V36.8121C64.651 29.9898 64.651 29.9898 57.7712 25.6414L38.8516 15.4077C36.0117 13.8708 31.3718 13.8708 28.5318 15.4077L9.61227 25.6414C2.73242 29.9898 2.73242 29.9898 2.73242 36.8121Z" stroke="#BA5865" stroke-width="4.6875" stroke-linecap="round" stroke-linejoin="round"/>
<path d="M55.6912 24.1047V14.2458C55.6912 6.74861 51.6913 3 43.6914 3H23.6919C15.6921 3 11.6921 6.74861 11.6921 14.2458V23.8423" stroke="#BA5865" stroke-width="4.6875" stroke-linecap="round" stroke-linejoin="round"/>
<path d="M36.2118 36.7001L38.4918 40.0363C38.8518 40.5611 39.6517 41.086 40.2517 41.2359L44.3316 42.2105C46.8516 42.8103 47.5316 44.8346 45.8916 46.7089L43.2117 49.7453C42.8117 50.2326 42.4917 51.0948 42.5317 51.6945L42.7717 55.6306C42.9317 58.0672 41.0917 59.3042 38.6918 58.4046L34.7718 56.9426C34.1719 56.7177 33.1719 56.7177 32.5719 56.9426L28.652 58.4046C26.252 59.3042 24.4122 58.0297 24.5721 55.6306L24.8121 51.6945C24.8521 51.0948 24.5321 50.1951 24.1322 49.7453L21.4522 46.7089C19.8123 44.8346 20.4922 42.8103 23.0122 42.2105L27.092 41.2359C27.732 41.086 28.532 40.5237 28.852 40.0363L31.1319 36.7001C32.5719 34.6758 34.8118 34.6758 36.2118 36.7001Z" stroke="#BA5865" stroke-width="4.6875" stroke-linecap="round" stroke-linejoin="round"/>
</svg>
