<svg width="25" height="24" viewBox="0 0 25 24" fill="none" xmlns="http://www.w3.org/2000/svg">
<g clip-path="url(#clip0_3_602)">
<path d="M22.6 3H2.59998C1.49998 3 0.599976 3.9 0.599976 5V19C0.599976 20.1 1.49998 21 2.59998 21H22.6C23.7 21 24.59 20.1 24.59 19L24.6 5C24.6 3.9 23.7 3 22.6 3ZM22.6 19H2.59998V5H22.6V19ZM19.61 17.99L21.6 16L20.09 14H18.45C18.23 13.37 18.1 12.7 18.1 12C18.1 11.3 18.23 10.63 18.45 10H20.09L21.6 8L19.61 6.01C18.3 6.99 17.33 8.38 16.88 10C16.7 10.64 16.6 11.31 16.6 12C16.6 12.69 16.7 13.36 16.88 14C17.33 15.61 18.3 17.01 19.61 17.99ZM9.59998 12C11.25 12 12.6 10.65 12.6 9C12.6 7.35 11.25 6 9.59998 6C7.94998 6 6.59998 7.35 6.59998 9C6.59998 10.65 7.94998 12 9.59998 12ZM9.59998 8C10.15 8 10.6 8.45 10.6 9C10.6 9.55 10.15 10 9.59998 10C9.04998 10 8.59998 9.55 8.59998 9C8.59998 8.45 9.04998 8 9.59998 8ZM15.6 16.59C15.6 14.09 11.63 13.01 9.59998 13.01C7.56998 13.01 3.59998 14.09 3.59998 16.59V18H15.6V16.59ZM6.07998 16C6.81998 15.5 8.29998 15 9.59998 15C10.9 15 12.37 15.49 13.12 16H6.07998Z" fill="#BA5865"/>
</g>
<defs>
<clipPath id="clip0_3_602">
<rect width="24" height="24" fill="white" transform="translate(0.599976)"/>
</clipPath>
</defs>
</svg>
