<svg id="Camada_1" data-name="Camada 1" xmlns="http://www.w3.org/2000/svg" viewBox="0 0 800 800"><defs><style>.cls-1{fill:#765659;}.cls-2{fill:#291c1d;}.cls-3{fill:#fff;}</style></defs><title>favicon</title><rect class="cls-1" width="800" height="800"/><rect class="cls-2" x="91.11" y="334.13" width="270.52" height="429.56"/><rect class="cls-2" x="397.7" y="58.68" width="270.52" height="705"/><path class="cls-3" d="M205.47,370.2c5.36-.62,14.72,48.58,16.4,82a107.4,107.4,0,0,1-1.64,26.24,88.51,88.51,0,0,1-11.48,31.15,85.33,85.33,0,0,1-22.95,24.59c-14,10-27,12.54-47.55,16.39-11.44,2.15-29.13,4.73-55.75,4.92-25.86.19-65.34-1.83-65.58-6.55-.1-2.18,8.19-3.69,41-11.48,30.83-7.32,46.25-11,52.47-13.12,17.39-6,43-14.76,62.3-37.71,16.88-20.09,21.65-42.45,26.23-63.94C205.88,390,202.1,370.58,205.47,370.2Z"/><path class="cls-3" d="M691.75,368.26c5.36-.62,14.72,48.58,16.4,82a107.3,107.3,0,0,1-1.64,26.23A88.47,88.47,0,0,1,695,507.62a85.33,85.33,0,0,1-22.95,24.59c-14,10-27,12.54-47.55,16.39-11.44,2.14-29.13,4.73-55.74,4.92-25.87.19-65.35-1.83-65.59-6.56-.1-2.17,8.19-3.68,41-11.47,30.83-7.32,46.25-11,52.47-13.12,17.39-6,43-14.76,62.3-37.71,16.88-20.09,21.65-42.45,26.23-63.94C692.16,388.06,688.38,368.64,691.75,368.26Z"/><path class="cls-3" d="M425.18,332.51l-51.84,209.6q-17.44,71.25-41.81,108.55T258.6,717.77q-71.31,43.77-154,43.78-16.55,0-41.76-6.43l51.28-31.42q29.82,7.24,54.65,7.26Q274.9,731,304,615.08l16.33-64.29,53.58-218.28H20.1L48,302.44H381.73l3.71-15Q408.81,191.49,478.36,138t170.4-53.53A395.66,395.66,0,0,1,691.34,87l-54.23,35.54A188,188,0,0,0,585,115q-61.92,0-91.52,30.89t-51,118.38L433,302.44l357.65,0L761.17,332Z"/></svg>