<svg width="453" height="387" viewBox="0 0 453 387" fill="none" xmlns="http://www.w3.org/2000/svg">
<g clip-path="url(#clip0_7_205)">
<path d="M201.806 151.199H43.429V387H201.806V151.199Z" fill="#291C1D"/>
<path d="M381.305 0H222.929V387H381.305V0Z" fill="#291C1D"/>
<path d="M110.387 170.999C113.525 170.664 119.005 197.672 119.983 216.012C120.296 220.83 119.974 225.666 119.023 230.41C117.956 236.457 115.675 242.26 112.302 247.51C108.825 252.804 104.257 257.394 98.8656 261.014C90.6692 266.503 83.0583 267.897 71.0273 270.011C64.3297 271.185 53.9789 272.602 38.3941 272.711C23.2777 272.821 0.134795 271.723 0.000140853 269.099C-0.064259 267.903 4.795 267.074 24.0037 262.798C42.0532 258.779 51.075 256.759 54.7166 255.601C64.8976 252.308 79.891 247.493 91.1903 234.901C101.073 223.867 103.865 211.598 106.553 199.802C110.627 181.868 108.414 171.213 110.387 170.999Z" fill="white"/>
<path d="M395.081 169.934C398.219 169.599 403.699 196.601 404.677 214.947C404.99 219.765 404.668 224.601 403.717 229.346C402.649 235.392 400.369 241.195 396.996 246.445C393.513 251.742 388.934 256.331 383.53 259.943C375.334 265.433 367.723 266.832 355.692 268.946C348.994 270.121 338.643 271.537 323.059 271.647C307.913 271.751 284.799 270.637 284.665 268.046C284.6 266.849 289.46 266.02 308.668 261.744C326.718 257.726 335.74 255.705 339.381 254.547C349.562 251.254 364.556 246.439 375.861 233.847C385.737 222.813 388.53 210.544 391.217 198.748C395.321 180.803 393.108 170.17 395.081 169.934Z" fill="white"/>
<path d="M239.011 150.315L208.661 265.367C201.858 291.441 193.701 311.309 184.189 324.97C174.678 338.631 160.445 350.909 141.492 361.804C113.66 377.825 83.5949 385.836 51.2975 385.836C44.838 385.836 36.6904 384.66 26.8548 382.307L56.8768 365.043C68.5078 367.696 79.1709 369.022 88.866 369.022C130.308 369.022 156.714 347.819 168.084 305.412L177.644 270.12L209.013 150.304H1.86182L18.1784 133.792H213.55L215.728 125.558C224.845 90.4592 242.979 63.113 270.128 43.5197C297.277 23.9263 330.531 14.1314 369.889 14.1351C378.22 14.1847 386.541 14.6556 394.818 15.5459L363.069 35.0496C353.16 32.3423 342.894 30.9545 332.572 30.9271C308.413 30.9271 290.553 36.5793 278.992 47.8837C267.431 59.1881 257.478 80.8473 249.134 112.861L243.572 133.809H452.965L435.688 150.013L239.011 150.315Z" fill="#FFF8F7"/>
</g>
<defs>
<clipPath id="clip0_7_205">
<rect width="453" height="387" fill="white"/>
</clipPath>
</defs>
</svg>
